<?xml version="1.0" encoding="utf-8" standalone="yes"?>
<!DOCTYPE svg PUBLIC "-//W3C//DTD SVG 1.1//EN" "http://www.w3.org/Graphics/SVG/1.1/DTD/svg11.dtd">
<svg xmlns="http://www.w3.org/2000/svg" xmlns:xlink="http://www.w3.org/1999/xlink" version="1.1" width="600" height="600">
<rect width="600" height="150" fill="#0039a6" x="0" y="0" /><rect width="600" height="300" fill="#0039a6" x="0" y="150" /><rect width="600" height="150" fill="#5f88d4" x="0" y="450" />
<ellipse cx="60" cy="60" rx="30" ry="30" fill="#ff0000" />
<ellipse cx="180" cy="480" rx="180" ry="180" fill="#5f88d4" />
<ellipse cx="420" cy="480" rx="180" ry="180" fill="#5f88d4" />
<ellipse cx="540" cy="540" rx="60" ry="30" fill="#009900" />
<polygon points="540,540 570,480 600,510" fill="#5f88d4" />
<ellipse cx="510" cy="540" rx="15" ry="15" fill="#ff6666" />
<ellipse cx="450" cy="570" rx="30" ry="15" fill="#009900" />
<polygon points="330,480 450,480 450,570" fill="#5f88d4" />
<ellipse cx="300" cy="300" rx="285" ry="285" fill="#0039a6" />
<ellipse cx="300" cy="300" rx="195" ry="195" fill="#ffcc00" />
<ellipse cx="300" cy="420" rx="90" ry="90" fill="#5f88d4" />
<ellipse cx="300" cy="300" rx="165" ry="165" fill="#ffffff" />
<ellipse cx="300" cy="300" rx="120" ry="120" fill="#ffcc00" />
<ellipse cx="180" cy="420" rx="90" ry="90" fill="#5f88d4" />
<ellipse cx="420" cy="420" rx="90" ry="90" fill="#5f88d4" />
<ellipse cx="390" cy="390" rx="45" ry="45" fill="#ffcc00" />
<ellipse cx="210" cy="390" rx="45" ry="45" fill="#ffcc00" />
<path d="M 300,300 m -255,0 a 255,255 0 1,0 510,0 a 255,255 0 1,0 -510,0 zM 300,300 m 191.25,0 a 191.25,191.25 0 1,1 -382.5,0 a 191.25,191.25 0 1,1 382.5,0 z" fill="#ff0000" />
<path d="M 300,300 m -270,0 a 270,270 0 1,0 540,0 a 270,270 0 1,0 -540,0 zM 300,300 m 216,0 a 216,216 0 1,1 -432,0 a 216,216 0 1,1 432,0 z" fill="#ffcc00" />
<defs><g id="e831e98b-ded1-47df-93fd-1cb2b6ba5102"><line x1="210" y1="300" x2="270" y2="300" stroke="#0039a6" stroke-width="30" /></g></defs>
<g transform="translate(300,0)rotate(0)">
<use xlink:href="#e831e98b-ded1-47df-93fd-1cb2b6ba5102" />
</g>
<g transform="translate(476.336,57.295)rotate(36)">
<use xlink:href="#e831e98b-ded1-47df-93fd-1cb2b6ba5102" />
</g>
<g transform="translate(585.317,207.295)rotate(72)">
<use xlink:href="#e831e98b-ded1-47df-93fd-1cb2b6ba5102" />
</g>
<g transform="translate(585.317,392.705)rotate(108)">
<use xlink:href="#e831e98b-ded1-47df-93fd-1cb2b6ba5102" />
</g>
<g transform="translate(476.336,542.705)rotate(144)">
<use xlink:href="#e831e98b-ded1-47df-93fd-1cb2b6ba5102" />
</g>
<g transform="translate(300,600)rotate(180)">
<use xlink:href="#e831e98b-ded1-47df-93fd-1cb2b6ba5102" />
</g>
<g transform="translate(123.664,542.705)rotate(216)">
<use xlink:href="#e831e98b-ded1-47df-93fd-1cb2b6ba5102" />
</g>
<g transform="translate(14.683,392.705)rotate(252)">
<use xlink:href="#e831e98b-ded1-47df-93fd-1cb2b6ba5102" />
</g>
<g transform="translate(14.683,207.295)rotate(288)">
<use xlink:href="#e831e98b-ded1-47df-93fd-1cb2b6ba5102" />
</g>
<g transform="translate(123.664,57.295)rotate(324)">
<use xlink:href="#e831e98b-ded1-47df-93fd-1cb2b6ba5102" />
</g>

<defs><g id="3cd258b2-786f-4c10-ac07-79c7bc2a717d"><line x1="210" y1="300" x2="240" y2="300" stroke="#ff0000" stroke-width="30" /></g></defs>
<g transform="translate(300,0)rotate(0)">
<use xlink:href="#3cd258b2-786f-4c10-ac07-79c7bc2a717d" />
</g>
<g transform="translate(476.336,57.295)rotate(36)">
<use xlink:href="#3cd258b2-786f-4c10-ac07-79c7bc2a717d" />
</g>
<g transform="translate(585.317,207.295)rotate(72)">
<use xlink:href="#3cd258b2-786f-4c10-ac07-79c7bc2a717d" />
</g>
<g transform="translate(585.317,392.705)rotate(108)">
<use xlink:href="#3cd258b2-786f-4c10-ac07-79c7bc2a717d" />
</g>
<g transform="translate(476.336,542.705)rotate(144)">
<use xlink:href="#3cd258b2-786f-4c10-ac07-79c7bc2a717d" />
</g>
<g transform="translate(300,600)rotate(180)">
<use xlink:href="#3cd258b2-786f-4c10-ac07-79c7bc2a717d" />
</g>
<g transform="translate(123.664,542.705)rotate(216)">
<use xlink:href="#3cd258b2-786f-4c10-ac07-79c7bc2a717d" />
</g>
<g transform="translate(14.683,392.705)rotate(252)">
<use xlink:href="#3cd258b2-786f-4c10-ac07-79c7bc2a717d" />
</g>
<g transform="translate(14.683,207.295)rotate(288)">
<use xlink:href="#3cd258b2-786f-4c10-ac07-79c7bc2a717d" />
</g>
<g transform="translate(123.664,57.295)rotate(324)">
<use xlink:href="#3cd258b2-786f-4c10-ac07-79c7bc2a717d" />
</g>

</svg>
